<svg width="70" height="70" viewBox="0 0 70 70" fill="none" xmlns="http://www.w3.org/2000/svg">
<rect width="70" height="70" rx="35" fill="url(#paint0_linear_2318_375)"/>
<path d="M22.7474 30.5996L32.0521 35.252L33.475 33.8291L24.1703 29.1768L22.7474 30.5996ZM36.4662 33.8291L37.889 35.252L47.1937 30.5996L45.7709 29.1768L36.4662 33.8291ZM25.9769 28.0986L34.9711 32.5957L43.9652 28.0996L34.9701 23.6016L25.9769 28.0986ZM24.8822 41.2686L34.0853 45.8701V35.7246L32.8539 36.9561C32.7226 37.0875 32.5529 37.1751 32.3695 37.2051C32.232 37.2275 32.092 37.2163 31.9603 37.1748L31.8314 37.123L20.8568 31.6357C20.731 31.5732 20.6218 31.4813 20.5385 31.3682C20.4552 31.2551 20.3999 31.1239 20.3773 30.9854C20.3548 30.8466 20.3653 30.704 20.4086 30.5703C20.4519 30.4365 20.5268 30.3151 20.6263 30.2158L23.3734 27.4688C23.4399 27.4061 23.5145 27.3527 23.5951 27.3096L23.6 27.3066L34.5756 21.8193C34.6985 21.758 34.8337 21.7256 34.9711 21.7256C35.1084 21.7256 35.2437 21.7581 35.3666 21.8193H35.3676L46.3422 27.3066L46.347 27.3096C46.4277 27.3526 46.5022 27.406 46.5687 27.4688L46.5736 27.4727L49.3168 30.2168C49.4159 30.3158 49.4904 30.437 49.5336 30.5703C49.5768 30.7039 49.5873 30.8467 49.5648 30.9854C49.5423 31.1239 49.4869 31.2551 49.4037 31.3682C49.3205 31.4812 49.2119 31.5731 49.0863 31.6357L38.1107 37.123C37.9443 37.2061 37.7561 37.235 37.5726 37.2051C37.389 37.1751 37.2197 37.0877 37.0883 36.9561L35.8568 35.7246V45.8721L45.0599 41.2705V35.2822C45.0672 35.0523 45.1643 34.834 45.3295 34.6738C45.4947 34.5138 45.7157 34.4239 45.9457 34.4238C46.1758 34.4238 46.3976 34.5137 46.5629 34.6738C46.728 34.8339 46.8241 35.0523 46.8314 35.2822L46.8324 35.2881H46.8314V41.8184C46.8313 41.9826 46.7859 42.1435 46.6996 42.2832C46.6132 42.4231 46.4892 42.5367 46.3422 42.6104L35.3676 48.0977C35.2446 48.159 35.1085 48.1915 34.9711 48.1914H34.7709V48.167C34.7034 48.1514 34.6379 48.1278 34.5756 48.0967L23.6 42.6094C23.4531 42.5358 23.3289 42.423 23.2426 42.2832C23.1562 42.1433 23.1108 41.9818 23.1107 41.8174V35.2812C23.118 35.0513 23.2141 34.833 23.3793 34.6729C23.5446 34.5127 23.7663 34.4229 23.9965 34.4229C24.2265 34.4229 24.4474 34.5128 24.6127 34.6729C24.778 34.833 24.8749 35.0512 24.8822 35.2812V41.2686Z" fill="white" stroke="white" stroke-width="0.4"/>
<path d="M48.1104 20.6318H48.1114L50.7374 20.9551L50.7432 20.9561C50.9706 20.9915 51.1758 21.1142 51.3145 21.2979C51.4531 21.4815 51.5145 21.7121 51.4864 21.9404C51.4582 22.1687 51.3422 22.3771 51.1631 22.5215C50.9842 22.6658 50.7564 22.7346 50.5274 22.7139H50.5206L49.9571 22.6436C63.7357 39.7239 43.0513 63.1568 24.3057 51.1689L24.3038 51.167C24.2067 51.1031 24.1229 51.021 24.0577 50.9248C23.9925 50.8286 23.9474 50.7203 23.9239 50.6064C23.9004 50.4925 23.8991 50.3749 23.921 50.2607C23.9429 50.1466 23.9869 50.0375 24.0508 49.9404C24.1148 49.8433 24.1977 49.7596 24.294 49.6943C24.3902 49.6291 24.4985 49.584 24.6124 49.5605C24.7263 49.5371 24.8438 49.5357 24.9581 49.5576C25.0437 49.5741 25.1263 49.6031 25.2032 49.6436L25.2784 49.6875L25.8233 50.0332C28.5764 51.7068 31.7406 52.5935 34.9708 52.5908H34.9717C49.7927 52.6473 57.9859 35.0729 48.6143 23.791L48.5596 24.2451L48.5587 24.252C48.523 24.4789 48.4002 24.6829 48.2169 24.8213C48.0334 24.9597 47.8033 25.0221 47.5753 24.9941C47.3472 24.9662 47.1387 24.8504 46.9942 24.6719C46.8497 24.4932 46.7806 24.2651 46.8008 24.0361V24.0293L47.1241 21.4033C47.1373 21.2878 47.1738 21.1757 47.2305 21.0742C47.2875 20.9725 47.3643 20.8833 47.4561 20.8115C47.5482 20.7396 47.6539 20.6859 47.7667 20.6553C47.8785 20.6249 47.9955 20.6169 48.1104 20.6318ZM34.9708 15.5508C38.5262 15.5476 42.009 16.5237 45.0391 18.3662L45.6387 18.7461L45.6417 18.748C45.8325 18.8794 45.9643 19.0802 46.0089 19.3076C46.0533 19.5351 46.0073 19.7712 45.8799 19.9648C45.7525 20.1585 45.5538 20.2946 45.3272 20.3438C45.1009 20.3928 44.8642 20.3517 44.668 20.2285L44.6661 20.2275C27.7194 9.37658 8.92706 30.461 21.2501 46.0186L21.2823 45.6494C21.2911 45.5336 21.3232 45.4208 21.376 45.3174C21.4293 45.2131 21.5032 45.1203 21.5928 45.0449C21.6824 44.9697 21.7858 44.9125 21.8975 44.8779C22.0094 44.8433 22.1277 44.8321 22.2442 44.8438L22.4239 44.8613V44.8799C22.4753 44.8956 22.5254 44.9156 22.5733 44.9404C22.6766 44.994 22.7689 45.0672 22.8438 45.1562C22.9185 45.2452 22.9748 45.3482 23.0098 45.459C23.0449 45.5699 23.058 45.6869 23.0479 45.8027L22.8321 48.3105V48.3115C22.821 48.4309 22.7856 48.5469 22.7286 48.6523C22.6715 48.7578 22.5939 48.8511 22.5001 48.9258C22.4063 49.0004 22.2982 49.055 22.1827 49.0869C22.0671 49.1188 21.946 49.1272 21.8272 49.1113H21.8262L19.0743 48.7256L19.0694 48.7246C18.8416 48.6866 18.6377 48.5611 18.501 48.375C18.3644 48.1888 18.3059 47.9563 18.338 47.7275C18.37 47.4988 18.4903 47.2919 18.6729 47.1504C18.8328 47.0266 19.0291 46.9616 19.2296 46.9648L19.3155 46.9697L19.3204 46.9707L19.7862 47.0352C9.72672 34.576 18.7786 15.4898 34.9708 15.5508Z" fill="white" stroke="white" stroke-width="0.4"/>
<defs>
<linearGradient id="paint0_linear_2318_375" x1="70" y1="35" x2="0" y2="35" gradientUnits="userSpaceOnUse">
<stop stop-color="#E92360"/>
<stop offset="1" stop-color="#FC7C7D"/>
</linearGradient>
</defs>
</svg>
