<svg width="101" height="100" viewBox="0 0 101 100" fill="none" xmlns="http://www.w3.org/2000/svg">
<g clip-path="url(#clip0_1744_2372)">
<path d="M58.3148 40.3026L53.332 45.2863C52.6716 45.9468 52.6716 47.0168 53.332 47.6772C53.9916 48.3377 55.0625 48.3377 55.7229 47.6772L60.7067 42.6944L65.4092 47.397C66.0697 48.0575 67.1396 48.0575 67.8001 47.397C68.4606 46.7365 68.4606 45.6656 67.8001 45.0051L63.0976 40.3026L67.8001 35.6C68.4606 34.9396 68.4606 33.8696 67.8001 33.2091C67.1396 32.5487 66.0697 32.5487 65.4092 33.2091L60.7067 37.9117L55.7229 32.928C55.0625 32.2675 53.9916 32.2675 53.332 32.928C52.6716 33.5884 52.6716 34.6593 53.332 35.3189L58.3148 40.3026Z" fill="#5DA746"/>
<path d="M2.19081 10.6293H12.5045C15.8909 10.6151 18.7799 13.0758 19.3064 16.4216L27.4689 77.635C27.4708 77.6482 27.4727 77.6623 27.4746 77.6755C28.2464 82.6762 32.5592 86.3607 37.6194 86.3409H39.0385C39.6612 90.0112 42.8409 92.6965 46.5631 92.6965C50.2863 92.6965 53.466 90.0112 54.0887 86.3409H68.2115C68.8653 90.1726 72.2941 92.9013 76.1749 92.6795C80.0565 92.4569 83.1504 89.3545 83.3627 85.4729C83.575 81.5912 80.8368 78.1699 77.0033 77.5255C73.1697 76.882 69.4645 79.221 68.3964 82.9593H53.9038C52.9687 79.6805 49.973 77.4198 46.5641 77.4198C43.1541 77.4198 40.1584 79.6805 39.2234 82.9593H37.6194C34.2331 82.9734 31.343 80.5127 30.8166 77.167L28.3568 58.7172H81.1114C85.4875 58.7153 89.3824 55.9432 90.8165 51.8096L100.407 24.134C100.586 23.6169 100.505 23.0452 100.187 22.5989C99.8697 22.1526 99.3555 21.8875 98.8082 21.8884H23.4466L22.655 15.9527C22.6531 15.9394 22.6512 15.9262 22.6494 15.9121C21.8776 10.9114 17.5647 7.22689 12.5045 7.24765H2.19081C1.25671 7.24765 0.5 8.00436 0.5 8.93845C0.5 9.8716 1.25671 10.6293 2.19081 10.6293ZM75.7352 80.8024C78.0846 80.8024 79.9895 82.7064 79.9895 85.0558C79.9895 87.4052 78.0846 89.3102 75.7352 89.3102C73.3858 89.3102 71.4817 87.4052 71.4817 85.0558C71.4846 82.7074 73.3877 80.8052 75.7352 80.8024ZM46.5622 80.8024C48.9116 80.8024 50.8166 82.7064 50.8166 85.0558C50.8166 87.4052 48.9116 89.3092 46.5622 89.3102C44.2128 89.3102 42.3087 87.4052 42.3087 85.0558C42.3116 82.7074 44.2137 80.8052 46.5622 80.8024ZM96.4334 25.27L87.6218 50.701C86.6594 53.474 84.0467 55.3337 81.1114 55.3346H27.9058L23.8958 25.27H96.4334Z" fill="black"/>
</g>
<defs>
<clipPath id="clip0_1744_2372">
<rect width="100" height="100" fill="white" transform="translate(0.5)"/>
</clipPath>
</defs>
</svg>
