<svg width="100" height="100" viewBox="0 0 100 100" fill="none" xmlns="http://www.w3.org/2000/svg">
<g clip-path="url(#clip0_1744_2475)">
<path d="M81.2856 73.1379L76.7194 77.7041L72.1532 73.1379C71.5036 72.4883 70.4505 72.489 69.8015 73.1379C69.1519 73.7875 69.1519 74.84 69.8015 75.4896L74.3678 80.0558L69.5273 84.8963C68.8783 85.5452 68.8777 86.5984 69.5273 87.248C70.1769 87.8976 71.23 87.8969 71.8789 87.248L76.7194 82.4075L81.5599 87.248C82.2089 87.8969 83.262 87.8976 83.9116 87.248C84.5605 86.599 84.5605 85.5452 83.9116 84.8963L79.0711 80.0558L83.6373 75.4896C84.2869 74.84 84.2869 73.7875 83.6373 73.1379C82.9877 72.4883 81.9352 72.4883 81.2856 73.1379Z" fill="#5DA746"/>
<path d="M79.5635 60.8735L73.9522 29.1979C73.4567 26.0039 70.6997 23.6525 67.4677 23.6655H61.3339V17.8723C61.3339 8.00171 53.3322 0 43.4616 0C33.591 0 25.5893 8.00171 25.5893 17.8723V23.6655H19.4565C16.2244 23.6516 13.4675 26.0039 12.9711 29.1979L3.8159 80.8847C3.79827 80.9812 3.78992 81.0777 3.78992 81.1752C3.79734 87.5075 8.9289 92.6391 15.2622 92.6465H61.3878C66.9063 99.5189 76.3222 101.881 84.4297 98.4267C92.5381 94.9729 97.3588 86.5462 96.2258 77.8058C95.0937 69.0664 88.2844 62.1466 79.5635 60.8735ZM28.9151 17.8723C28.9151 9.83812 35.4284 3.32577 43.4616 3.32577C51.4958 3.32577 58.0082 9.83812 58.0082 17.8723V23.6655H28.9151V17.8723ZM7.11754 81.3144L16.2486 29.7621C16.2504 29.7519 16.2523 29.7408 16.2541 29.7306C16.4954 28.1503 17.8576 26.9848 19.4565 26.9913H25.5893V36.0267C25.5893 36.9454 26.3345 37.6896 27.2522 37.6896C28.1709 37.6896 28.9151 36.9454 28.9151 36.0267V26.9913H58.0082V36.0267C58.0082 36.9454 58.7524 37.6896 59.6711 37.6896C60.5897 37.6896 61.3339 36.9454 61.3339 36.0267V26.9913H67.4677C69.0656 26.9848 70.4288 28.1503 70.6691 29.7306C70.671 29.7408 70.6728 29.7519 70.6747 29.7621L76.1514 60.6786C69.4025 60.8754 63.226 64.5194 59.7898 70.3321C56.3546 76.1448 56.1393 83.3132 59.221 89.3207H15.2631C10.8201 89.3161 7.19828 85.7565 7.11754 81.3144ZM76.7212 96.6729C71.52 96.6608 66.6316 94.186 63.5452 89.9991C59.904 85.0336 59.363 78.4424 62.145 72.9498C64.9279 67.4564 70.5615 63.9933 76.7193 63.9914C77.149 63.9914 77.5842 64.0081 78.012 64.0415C86.7579 64.7356 93.3946 72.2121 93.0475 80.9785C92.7005 89.7448 85.4931 96.6729 76.7193 96.6738L76.7212 96.6729Z" fill="black"/>
</g>
<defs>
<clipPath id="clip0_1744_2475">
<rect width="100" height="100" fill="white"/>
</clipPath>
</defs>
</svg>
