<svg width="70" height="70" viewBox="0 0 70 70" fill="none" xmlns="http://www.w3.org/2000/svg">
<rect width="70" height="70" rx="35" fill="url(#paint0_linear_2318_330)"/>
<path d="M53.9198 37.6599L52.7804 33.1022C53.0919 33.036 53.3257 32.7597 53.3257 32.4285V31.6937C53.3257 30.0982 52.0276 28.8002 50.4321 28.8002H45.2422V27.2845C45.2422 26.4994 44.6035 25.8607 43.8184 25.8607H34.1681L40.0325 23.5149C40.2014 23.4466 40.3364 23.314 40.4078 23.1464C40.4792 22.9787 40.4813 22.7896 40.4137 22.6204C40.346 22.4512 40.214 22.3157 40.0467 22.2436C39.8793 22.1715 39.6902 22.1686 39.5207 22.2356L34.7191 24.1562C36.1822 23.2174 37.6299 22.1842 38.181 21.4616C39.2539 20.0549 38.9822 18.0376 37.5755 16.9647C36.1687 15.8917 34.1515 16.1635 33.0785 17.5702C32.2946 18.5982 31.2603 21.4866 30.5908 23.5221C29.9213 21.4868 28.887 18.5982 28.1031 17.5702C27.0302 16.1635 25.0129 15.8918 23.6061 16.9647C22.1994 18.0375 21.9278 20.0548 23.0006 21.4616C23.5517 22.1843 24.9993 23.2174 26.4625 24.1562L21.6609 22.2356C21.5769 22.2019 21.4871 22.1852 21.3966 22.1863C21.3061 22.1874 21.2167 22.2063 21.1336 22.2419C21.0504 22.2776 20.9751 22.3292 20.9119 22.394C20.8487 22.4588 20.7989 22.5354 20.7653 22.6194C20.7317 22.7034 20.715 22.7932 20.7161 22.8837C20.7172 22.9741 20.7361 23.0635 20.7717 23.1467C20.8073 23.2298 20.859 23.3051 20.9238 23.3683C20.9885 23.4315 21.0651 23.4813 21.1491 23.5149L27.0135 25.8607H17.3632C16.5781 25.8607 15.9394 26.4994 15.9394 27.2845V39.7772C15.9394 39.96 16.012 40.1352 16.1412 40.2644C16.2704 40.3936 16.4456 40.4662 16.6284 40.4662C16.8111 40.4662 16.9863 40.3936 17.1155 40.2644C17.2447 40.1352 17.3173 39.96 17.3173 39.7772V27.2845C17.3173 27.2591 17.3379 27.2386 17.3632 27.2386H43.8183C43.8437 27.2386 43.8642 27.2591 43.8642 27.2845V39.7774C43.8642 39.9601 43.9368 40.1354 44.066 40.2646C44.1952 40.3938 44.3704 40.4664 44.5532 40.4664C44.7359 40.4664 44.9111 40.3938 45.0403 40.2646C45.1695 40.1354 45.2421 39.9601 45.2421 39.7774V38.9964H53.3689L53.371 38.9966L53.3733 38.9965C54.3732 38.9973 55.2223 39.6537 55.5138 40.5581H53.3715C53.1888 40.5581 53.0136 40.6306 52.8844 40.7599C52.7552 40.8891 52.6826 41.0643 52.6826 41.247V42.7167C52.6826 43.907 53.6509 44.8754 54.8412 44.8754H55.6221V47.9067H53.8207C53.2289 46.1981 51.6046 44.9672 49.6972 44.9672C47.7898 44.9672 46.1654 46.198 45.5737 47.9067H45.242V42.7166C45.242 42.5339 45.1694 42.3587 45.0402 42.2295C44.911 42.1003 44.7358 42.0277 44.5531 42.0277C44.3703 42.0277 44.1951 42.1003 44.0659 42.2295C43.9367 42.3587 43.8641 42.5339 43.8641 42.7166V47.9066H29.5702C28.9784 46.198 27.3541 44.9671 25.4468 44.9671C23.5394 44.9671 21.915 46.1979 21.3233 47.9066H17.3632C17.351 47.9066 17.3394 47.9017 17.3308 47.8931C17.3222 47.8845 17.3173 47.8729 17.3173 47.8607V46.345H20.3027C20.4854 46.345 20.6607 46.2724 20.7899 46.1432C20.9191 46.014 20.9917 45.8388 20.9917 45.656C20.9917 45.4733 20.9191 45.2981 20.7899 45.1689C20.6607 45.0397 20.4854 44.9671 20.3027 44.9671H13.689C13.5062 44.9671 13.331 45.0397 13.2018 45.1689C13.0726 45.2981 13 45.4733 13 45.656C13 45.8388 13.0726 46.014 13.2018 46.1432C13.331 46.2724 13.5062 46.345 13.689 46.345H15.9395V47.8607C15.9395 48.6458 16.5782 49.2845 17.3633 49.2845H21.0847C21.0846 49.2998 21.0835 49.315 21.0835 49.3304C21.0835 51.7362 23.0409 53.6936 25.4468 53.6936C27.8526 53.6936 29.81 51.7362 29.81 49.3304C29.81 49.3149 29.8089 49.2998 29.8088 49.2845H45.3351C45.3349 49.2998 45.3339 49.315 45.3339 49.3304C45.3339 51.7362 47.2913 53.6936 49.6971 53.6936C52.1029 53.6936 54.0603 51.7362 54.0603 49.3304C54.0603 49.3149 54.0593 49.2998 54.0591 49.2845H56.3109C56.4937 49.2845 56.6689 49.2119 56.7981 49.0827C56.9273 48.9535 56.9999 48.7783 56.9999 48.5955V41.2469C57 39.4324 55.6613 37.9249 53.9198 37.6599ZM27.8586 23.4047C25.141 21.7159 24.3349 20.939 24.0962 20.626C23.4841 19.8234 23.6391 18.6724 24.4418 18.0603C24.7599 17.8171 25.1494 17.6856 25.5498 17.686C26.1017 17.686 26.6477 17.9341 27.0076 18.4059C27.674 19.2797 28.7177 22.2207 29.4068 24.34C28.887 24.0344 28.3709 23.7226 27.8586 23.4047ZM31.775 24.3399C32.4641 22.2207 33.5078 19.2798 34.1741 18.4058C34.7863 17.6032 35.9372 17.4483 36.7398 18.0603C37.5425 18.6724 37.6974 19.8234 37.0854 20.626C36.8467 20.9389 36.0406 21.7159 33.3232 23.4046C32.8109 23.7225 32.2948 24.0343 31.775 24.3399ZM45.2422 30.1779H50.4321C51.2679 30.1779 51.9478 30.8579 51.9478 31.6936V31.7395H45.2422V30.1779ZM45.2422 37.6185V33.1174H51.364L52.4892 37.6185H45.2422ZM25.4468 52.3158C23.8006 52.3158 22.4614 50.9765 22.4614 49.3304C22.4614 47.6843 23.8006 46.345 25.4468 46.345C27.0929 46.345 28.4321 47.6843 28.4321 49.3304C28.4321 50.9765 27.0929 52.3158 25.4468 52.3158ZM49.6973 52.3158C48.0512 52.3158 46.7119 50.9765 46.7119 49.3304C46.7119 47.6843 48.0512 46.345 49.6973 46.345C51.3434 46.345 52.6827 47.6843 52.6827 49.3304C52.6827 50.9765 51.3434 52.3158 49.6973 52.3158ZM55.6222 43.4974H54.8413C54.4108 43.4974 54.0605 43.1471 54.0605 42.7165V41.9357H55.6221V43.4974H55.6222Z" fill="white"/>
<path d="M25.4468 47.9054C24.6616 47.9054 24.0229 48.544 24.0229 49.3292C24.0229 50.1143 24.6616 50.753 25.4468 50.753C26.2319 50.753 26.8706 50.1143 26.8706 49.3292C26.8706 48.544 26.2319 47.9054 25.4468 47.9054ZM49.6973 47.9054C48.9122 47.9054 48.2735 48.544 48.2735 49.3292C48.2735 50.1143 48.9122 50.753 49.6973 50.753C50.4824 50.753 51.1211 50.1143 51.1211 49.3292C51.1211 48.544 50.4824 47.9054 49.6973 47.9054ZM41.6137 44.9659H31.3256C31.1429 44.9659 30.9677 45.0385 30.8385 45.1677C30.7093 45.2969 30.6367 45.4721 30.6367 45.6548C30.6367 45.8376 30.7093 46.0128 30.8385 46.142C30.9677 46.2712 31.1429 46.3438 31.3256 46.3438H41.6137C41.7965 46.3438 41.9717 46.2712 42.1009 46.142C42.2301 46.0128 42.3027 45.8376 42.3027 45.6548C42.3027 45.4721 42.2301 45.2969 42.1009 45.1677C41.9717 45.0385 41.7965 44.9659 41.6137 44.9659ZM23.977 42.0265H15.1587C14.9759 42.0265 14.8007 42.099 14.6715 42.2283C14.5423 42.3575 14.4697 42.5327 14.4697 42.7154C14.4697 42.8981 14.5423 43.0734 14.6715 43.2026C14.8007 43.3318 14.9759 43.4044 15.1587 43.4044H23.977C24.1598 43.4044 24.335 43.3318 24.4642 43.2026C24.5934 43.0734 24.666 42.8981 24.666 42.7154C24.666 42.5327 24.5934 42.3575 24.4642 42.2283C24.335 42.099 24.1598 42.0265 23.977 42.0265ZM23.977 31.7383H21.0376C20.8548 31.7383 20.6796 31.8109 20.5504 31.9401C20.4212 32.0693 20.3486 32.2445 20.3486 32.4272V38.3061C20.3486 38.4889 20.4212 38.6641 20.5504 38.7933C20.6796 38.9225 20.8548 38.9951 21.0376 38.9951C21.2203 38.9951 21.3955 38.9225 21.5247 38.7933C21.6539 38.6641 21.7265 38.4889 21.7265 38.3061V36.0556H23.2422C23.4249 36.0556 23.6002 35.983 23.7294 35.8538C23.8586 35.7246 23.9312 35.5494 23.9312 35.3666C23.9312 35.1839 23.8586 35.0087 23.7294 34.8795C23.6002 34.7503 23.4249 34.6777 23.2422 34.6777H21.7265V33.1162H23.977C24.1598 33.1162 24.335 33.0436 24.4642 32.9144C24.5934 32.7852 24.666 32.61 24.666 32.4272C24.666 32.2445 24.5934 32.0693 24.4642 31.9401C24.335 31.8109 24.1598 31.7383 23.977 31.7383ZM29.3988 36.3786C30.0882 35.927 30.5449 35.1483 30.5449 34.2644C30.5449 32.8715 29.4117 31.7383 28.0188 31.7383H26.1816C25.9989 31.7383 25.8236 31.8109 25.6944 31.9401C25.5652 32.0693 25.4926 32.2445 25.4926 32.4272V38.3061C25.4926 38.4889 25.5652 38.6641 25.6944 38.7933C25.8236 38.9225 25.9989 38.9951 26.1816 38.9951C26.3643 38.9951 26.5396 38.9225 26.6688 38.7933C26.798 38.6641 26.8706 38.4889 26.8706 38.3061V36.7905H28.0175L29.2827 38.6882C29.3456 38.7827 29.4309 38.8602 29.531 38.9138C29.6311 38.9673 29.7429 38.9953 29.8565 38.9951C29.9923 38.9952 30.1251 38.9549 30.2379 38.8793C30.3132 38.8291 30.3779 38.7646 30.4283 38.6894C30.4786 38.6143 30.5137 38.5299 30.5314 38.4412C30.5491 38.3525 30.5492 38.2611 30.5317 38.1724C30.5141 38.0836 30.4792 37.9992 30.429 37.924L29.3988 36.3786ZM28.0188 35.4126H26.8706V33.1162H28.0188C28.652 33.1162 29.167 33.6312 29.167 34.2644C29.167 34.8976 28.652 35.4126 28.0188 35.4126ZM35 37.6173H32.7495V36.0534C32.7647 36.0544 32.7799 36.0557 32.7953 36.0557H34.2651C34.4478 36.0557 34.623 35.9831 34.7522 35.8539C34.8814 35.7247 34.954 35.5495 34.954 35.3667C34.954 35.184 34.8814 35.0088 34.7522 34.8796C34.623 34.7504 34.4478 34.6778 34.2651 34.6778H32.7953C32.7798 34.6778 32.7647 34.6791 32.7495 34.6801V33.1162H35C35.1827 33.1162 35.358 33.0436 35.4872 32.9144C35.6164 32.7852 35.689 32.61 35.689 32.4272C35.689 32.2445 35.6164 32.0693 35.4872 31.9401C35.358 31.8109 35.1827 31.7383 35 31.7383H32.0605C31.8778 31.7383 31.7025 31.8109 31.5733 31.9401C31.4441 32.0693 31.3715 32.2445 31.3715 32.4272V38.3061C31.3715 38.4889 31.4441 38.6641 31.5733 38.7933C31.7025 38.9225 31.8778 38.9951 32.0605 38.9951H35C35.1814 38.9931 35.3546 38.9196 35.4822 38.7906C35.6097 38.6616 35.6813 38.4876 35.6813 38.3062C35.6813 38.1248 35.6097 37.9507 35.4822 37.8217C35.3546 37.6928 35.1814 37.6193 35 37.6173ZM40.144 37.6173H37.8935V36.0557H38.6743C38.8571 36.0557 39.0323 35.9831 39.1615 35.8539C39.2907 35.7247 39.3633 35.5495 39.3633 35.3667C39.3633 35.184 39.2907 35.0088 39.1615 34.8796C39.0323 34.7504 38.8571 34.6778 38.6743 34.6778H37.8935V33.1162H40.144C40.3268 33.1162 40.502 33.0436 40.6312 32.9144C40.7604 32.7852 40.833 32.61 40.833 32.4272C40.833 32.2445 40.7604 32.0693 40.6312 31.9401C40.502 31.8109 40.3268 31.7383 40.144 31.7383H37.2045C37.0218 31.7383 36.8466 31.8109 36.7174 31.9401C36.5882 32.0693 36.5156 32.2445 36.5156 32.4272V38.3061C36.5156 38.4889 36.5882 38.6641 36.7174 38.7933C36.8466 38.9225 37.0218 38.9951 37.2045 38.9951H40.144C40.3254 38.9931 40.4987 38.9196 40.6262 38.7906C40.7538 38.6616 40.8253 38.4876 40.8253 38.3062C40.8253 38.1248 40.7538 37.9507 40.6262 37.8217C40.4987 37.6928 40.3254 37.6193 40.144 37.6173Z" fill="white"/>
<defs>
<linearGradient id="paint0_linear_2318_330" x1="70" y1="35" x2="0" y2="35" gradientUnits="userSpaceOnUse">
<stop stop-color="#0154BC"/>
<stop offset="1" stop-color="#8191E6"/>
</linearGradient>
</defs>
</svg>
