<?xml version="1.0" encoding="utf-8"?>
<svg xmlns="http://www.w3.org/2000/svg" viewBox="0 0 70 70" width="70px" height="70px" xmlns:bx="https://boxy-svg.com">
    <defs>
        <linearGradient id="paint0_linear_2318_330" x1="70" y1="35" x2="0" y2="35" gradientUnits="userSpaceOnUse">
            <stop stop-color="#0154BC" />
            <stop offset="1" stop-color="#8191E6" />
        </linearGradient>
        <style bx:fonts="Open Sans">
            @import url(https://fonts.googleapis.com/css2?family=Open+Sans%3Aital%2Cwght%400%2C300..800%3B1%2C300..800&amp;display=swap);
        </style>
    </defs>
    <rect width="70" height="70" rx="35" fill="url(#paint0_linear_2318_330)" />
    <path
        d="M53.9198 37.6599L52.7804 33.1022C53.0919 33.036 53.3257 32.7597 53.3257 32.4285V31.6937C53.3257 30.0982 52.0276 28.8002 50.4321 28.8002H45.2422V27.2845C45.2422 26.4994 44.6035 25.8607 43.8184 25.8607H34.1681L40.0325 23.5149C40.2014 23.4466 40.3364 23.314 40.4078 23.1464C40.4792 22.9787 40.4813 22.7896 40.4137 22.6204C40.346 22.4512 40.214 22.3157 40.0467 22.2436C39.8793 22.1715 39.6902 22.1686 39.5207 22.2356L34.7191 24.1562C36.1822 23.2174 37.6299 22.1842 38.181 21.4616C39.2539 20.0549 38.9822 18.0376 37.5755 16.9647C36.1687 15.8917 34.1515 16.1635 33.0785 17.5702C32.2946 18.5982 31.2603 21.4866 30.5908 23.5221C29.9213 21.4868 28.887 18.5982 28.1031 17.5702C27.0302 16.1635 25.0129 15.8918 23.6061 16.9647C22.1994 18.0375 21.9278 20.0548 23.0006 21.4616C23.5517 22.1843 24.9993 23.2174 26.4625 24.1562L21.6609 22.2356C21.5769 22.2019 21.4871 22.1852 21.3966 22.1863C21.3061 22.1874 21.2167 22.2063 21.1336 22.2419C21.0504 22.2776 20.9751 22.3292 20.9119 22.394C20.8487 22.4588 20.7989 22.5354 20.7653 22.6194C20.7317 22.7034 20.715 22.7932 20.7161 22.8837C20.7172 22.9741 20.7361 23.0635 20.7717 23.1467C20.8073 23.2298 20.859 23.3051 20.9238 23.3683C20.9885 23.4315 21.0651 23.4813 21.1491 23.5149L27.0135 25.8607H17.3632C16.5781 25.8607 15.9394 26.4994 15.9394 27.2845V39.7772C15.9394 39.96 16.012 40.1352 16.1412 40.2644C16.2704 40.3936 16.4456 40.4662 16.6284 40.4662C16.8111 40.4662 16.9863 40.3936 17.1155 40.2644C17.2447 40.1352 17.3173 39.96 17.3173 39.7772V27.2845C17.3173 27.2591 17.3379 27.2386 17.3632 27.2386H43.8183C43.8437 27.2386 43.8642 27.2591 43.8642 27.2845V39.7774C43.8642 39.9601 43.9368 40.1354 44.066 40.2646C44.1952 40.3938 44.3704 40.4664 44.5532 40.4664C44.7359 40.4664 44.9111 40.3938 45.0403 40.2646C45.1695 40.1354 45.2421 39.9601 45.2421 39.7774V38.9964H53.3689L53.371 38.9966L53.3733 38.9965C54.3732 38.9973 55.2223 39.6537 55.5138 40.5581H53.3715C53.1888 40.5581 53.0136 40.6306 52.8844 40.7599C52.7552 40.8891 52.6826 41.0643 52.6826 41.247V42.7167C52.6826 43.907 53.6509 44.8754 54.8412 44.8754H55.6221V47.9067H53.8207C53.2289 46.1981 51.6046 44.9672 49.6972 44.9672C47.7898 44.9672 46.1654 46.198 45.5737 47.9067H45.242V42.7166C45.242 42.5339 45.1694 42.3587 45.0402 42.2295C44.911 42.1003 44.7358 42.0277 44.5531 42.0277C44.3703 42.0277 44.1951 42.1003 44.0659 42.2295C43.9367 42.3587 43.8641 42.5339 43.8641 42.7166V47.9066H29.5702C28.9784 46.198 27.3541 44.9671 25.4468 44.9671C23.5394 44.9671 21.915 46.1979 21.3233 47.9066H17.3632C17.351 47.9066 17.3394 47.9017 17.3308 47.8931C17.3222 47.8845 17.3173 47.8729 17.3173 47.8607V46.345H20.3027C20.4854 46.345 20.6607 46.2724 20.7899 46.1432C20.9191 46.014 20.9917 45.8388 20.9917 45.656C20.9917 45.4733 20.9191 45.2981 20.7899 45.1689C20.6607 45.0397 20.4854 44.9671 20.3027 44.9671H13.689C13.5062 44.9671 13.331 45.0397 13.2018 45.1689C13.0726 45.2981 13 45.4733 13 45.656C13 45.8388 13.0726 46.014 13.2018 46.1432C13.331 46.2724 13.5062 46.345 13.689 46.345H15.9395V47.8607C15.9395 48.6458 16.5782 49.2845 17.3633 49.2845H21.0847C21.0846 49.2998 21.0835 49.315 21.0835 49.3304C21.0835 51.7362 23.0409 53.6936 25.4468 53.6936C27.8526 53.6936 29.81 51.7362 29.81 49.3304C29.81 49.3149 29.8089 49.2998 29.8088 49.2845H45.3351C45.3349 49.2998 45.3339 49.315 45.3339 49.3304C45.3339 51.7362 47.2913 53.6936 49.6971 53.6936C52.1029 53.6936 54.0603 51.7362 54.0603 49.3304C54.0603 49.3149 54.0593 49.2998 54.0591 49.2845H56.3109C56.4937 49.2845 56.6689 49.2119 56.7981 49.0827C56.9273 48.9535 56.9999 48.7783 56.9999 48.5955V41.2469C57 39.4324 55.6613 37.9249 53.9198 37.6599ZM27.8586 23.4047C25.141 21.7159 24.3349 20.939 24.0962 20.626C23.4841 19.8234 23.6391 18.6724 24.4418 18.0603C24.7599 17.8171 25.1494 17.6856 25.5498 17.686C26.1017 17.686 26.6477 17.9341 27.0076 18.4059C27.674 19.2797 28.7177 22.2207 29.4068 24.34C28.887 24.0344 28.3709 23.7226 27.8586 23.4047ZM31.775 24.3399C32.4641 22.2207 33.5078 19.2798 34.1741 18.4058C34.7863 17.6032 35.9372 17.4483 36.7398 18.0603C37.5425 18.6724 37.6974 19.8234 37.0854 20.626C36.8467 20.9389 36.0406 21.7159 33.3232 23.4046C32.8109 23.7225 32.2948 24.0343 31.775 24.3399ZM45.2422 30.1779H50.4321C51.2679 30.1779 51.9478 30.8579 51.9478 31.6936V31.7395H45.2422V30.1779ZM45.2422 37.6185V33.1174H51.364L52.4892 37.6185H45.2422ZM25.4468 52.3158C23.8006 52.3158 22.4614 50.9765 22.4614 49.3304C22.4614 47.6843 23.8006 46.345 25.4468 46.345C27.0929 46.345 28.4321 47.6843 28.4321 49.3304C28.4321 50.9765 27.0929 52.3158 25.4468 52.3158ZM49.6973 52.3158C48.0512 52.3158 46.7119 50.9765 46.7119 49.3304C46.7119 47.6843 48.0512 46.345 49.6973 46.345C51.3434 46.345 52.6827 47.6843 52.6827 49.3304C52.6827 50.9765 51.3434 52.3158 49.6973 52.3158ZM55.6222 43.4974H54.8413C54.4108 43.4974 54.0605 43.1471 54.0605 42.7165V41.9357H55.6221V43.4974H55.6222Z"
        fill="white" />
    <path
        d="M 25.447 47.905 C 24.662 47.905 24.023 48.544 24.023 49.329 C 24.023 50.114 24.662 50.753 25.447 50.753 C 26.232 50.753 26.871 50.114 26.871 49.329 C 26.871 48.544 26.232 47.905 25.447 47.905 Z M 49.697 47.905 C 48.912 47.905 48.274 48.544 48.274 49.329 C 48.274 50.114 48.912 50.753 49.697 50.753 C 50.482 50.753 51.121 50.114 51.121 49.329 C 51.121 48.544 50.482 47.905 49.697 47.905 Z M 41.614 44.966 L 31.326 44.966 C 31.143 44.966 30.968 45.039 30.839 45.168 C 30.709 45.297 30.637 45.472 30.637 45.655 C 30.637 45.838 30.709 46.013 30.839 46.142 C 30.968 46.271 31.143 46.344 31.326 46.344 L 41.614 46.344 C 41.797 46.344 41.972 46.271 42.101 46.142 C 42.23 46.013 42.303 45.838 42.303 45.655 C 42.303 45.472 42.23 45.297 42.101 45.168 C 41.972 45.039 41.797 44.966 41.614 44.966 Z M 23.977 42.027 L 15.159 42.027 C 14.976 42.027 14.801 42.099 14.672 42.228 C 14.542 42.358 14.47 42.533 14.47 42.715 C 14.47 42.898 14.542 43.073 14.672 43.203 C 14.801 43.332 14.976 43.404 15.159 43.404 L 23.977 43.404 C 24.16 43.404 24.335 43.332 24.464 43.203 C 24.593 43.073 24.666 42.898 24.666 42.715 C 24.666 42.533 24.593 42.358 24.464 42.228 C 24.335 42.099 24.16 42.027 23.977 42.027 Z"
        fill="white" />
    <text
        style="fill: rgb(255, 255, 255); font-family: &quot;Open Sans&quot;; font-size: 28px; font-style: italic; font-weight: 622; stroke-width: 44.8933px; white-space: pre; transform-origin: 98.1007px 90.128px;"
        transform="matrix(0.22576998, -0.000723, 0.001537, 0.21972603, -61.82301182, -54.27036578)" x="27.285"
        y="96.637" dx="0 0 0 0 0 0 -0.343" dy="0 0 0 0 0 0 0.456" id="object-0">Express</text>
</svg>