<svg width="70" height="70" viewBox="0 0 70 70" fill="none" xmlns="http://www.w3.org/2000/svg">
<rect width="70" height="70" rx="35" fill="url(#paint0_linear_2318_343)"/>
<path d="M52.1875 29.4985H50.8125V17.811C50.7817 17.2359 50.5248 16.6963 50.0977 16.3099C49.6706 15.9235 49.1081 15.7217 48.5327 15.7485H21.4672C20.8919 15.7217 20.3294 15.9235 19.9023 16.3099C19.4752 16.6963 19.2183 17.2359 19.1875 17.811V29.4985H17.8125C17.2655 29.4985 16.7409 29.7158 16.3541 30.1025C15.9673 30.4893 15.75 31.0139 15.75 31.561V38.436C15.75 38.983 15.9673 39.5076 16.3541 39.8944C16.7409 40.2812 17.2655 40.4985 17.8125 40.4985H19.1875V52.186C19.2183 52.7611 19.4752 53.3007 19.9023 53.687C20.3294 54.0734 20.8919 54.2752 21.4672 54.2485H48.5327C49.1081 54.2752 49.6706 54.0734 50.0977 53.687C50.5248 53.3007 50.7817 52.7611 50.8125 52.186V40.4985H52.1875C52.7345 40.4985 53.2591 40.2812 53.6459 39.8944C54.0327 39.5076 54.25 38.983 54.25 38.436V31.561C54.25 31.0139 54.0327 30.4893 53.6459 30.1025C53.2591 29.7158 52.7345 29.4985 52.1875 29.4985ZM20.5625 17.811C20.5625 17.4383 20.975 17.1235 21.4672 17.1235H48.5327C49.025 17.1235 49.4375 17.4383 49.4375 17.811V29.4985H20.5625V17.811ZM49.4375 52.186C49.4375 52.5586 49.025 52.8735 48.5327 52.8735H21.4672C20.975 52.8735 20.5625 52.5586 20.5625 52.186V40.4985H49.4375V52.186ZM52.875 38.436C52.875 38.6183 52.8026 38.7932 52.6736 38.9221C52.5447 39.051 52.3698 39.1235 52.1875 39.1235H17.8125C17.6302 39.1235 17.4553 39.051 17.3264 38.9221C17.1974 38.7932 17.125 38.6183 17.125 38.436V31.561C17.125 31.3786 17.1974 31.2038 17.3264 31.0748C17.4553 30.9459 17.6302 30.8735 17.8125 30.8735H52.1875C52.3698 30.8735 52.5447 30.9459 52.6736 31.0748C52.8026 31.2038 52.875 31.3786 52.875 31.561V38.436Z" fill="white"/>
<path d="M19.1875 32.25C19.0052 32.25 18.8303 32.3224 18.7014 32.4514C18.5724 32.5803 18.5 32.7552 18.5 32.9375V37.0625C18.5 37.2448 18.5724 37.4197 18.7014 37.5486C18.8303 37.6776 19.0052 37.75 19.1875 37.75C19.3698 37.75 19.5447 37.6776 19.6736 37.5486C19.8026 37.4197 19.875 37.2448 19.875 37.0625V32.9375C19.875 32.7552 19.8026 32.5803 19.6736 32.4514C19.5447 32.3224 19.3698 32.25 19.1875 32.25ZM40.5 32.25C40.3177 32.25 40.1428 32.3224 40.0139 32.4514C39.8849 32.5803 39.8125 32.7552 39.8125 32.9375V37.0625C39.8125 37.2448 39.8849 37.4197 40.0139 37.5486C40.1428 37.6776 40.3177 37.75 40.5 37.75C40.6823 37.75 40.8572 37.6776 40.9861 37.5486C41.1151 37.4197 41.1875 37.2448 41.1875 37.0625V32.9375C41.1875 32.7552 41.1151 32.5803 40.9861 32.4514C40.8572 32.3224 40.6823 32.25 40.5 32.25ZM50.8125 33.625C50.9948 33.625 51.1697 33.5526 51.2986 33.4236C51.4276 33.2947 51.5 33.1198 51.5 32.9375C51.5 32.7552 51.4276 32.5803 51.2986 32.4514C51.1697 32.3224 50.9948 32.25 50.8125 32.25H48.75C48.5677 32.25 48.3928 32.3224 48.2639 32.4514C48.1349 32.5803 48.0625 32.7552 48.0625 32.9375V37.0625C48.0625 37.2448 48.1349 37.4197 48.2639 37.5486C48.3928 37.6776 48.5677 37.75 48.75 37.75H50.8125C50.9948 37.75 51.1697 37.6776 51.2986 37.5486C51.4276 37.4197 51.5 37.2448 51.5 37.0625C51.5 36.8802 51.4276 36.7053 51.2986 36.5764C51.1697 36.4474 50.9948 36.375 50.8125 36.375H49.4375V35.6875H50.8125C50.9948 35.6875 51.1697 35.6151 51.2986 35.4861C51.4276 35.3572 51.5 35.1823 51.5 35C51.5 34.8177 51.4276 34.6428 51.2986 34.5139C51.1697 34.3849 50.9948 34.3125 50.8125 34.3125H49.4375V33.625H50.8125ZM25.375 32.25C25.1927 32.25 25.0178 32.3224 24.8889 32.4514C24.7599 32.5803 24.6875 32.7552 24.6875 32.9375V35.1636L22.4655 32.4968C22.375 32.3883 22.2533 32.3103 22.1169 32.2734C21.9805 32.2366 21.836 32.2426 21.7032 32.2908C21.5703 32.339 21.4556 32.4269 21.3745 32.5426C21.2934 32.6583 21.2499 32.7962 21.25 32.9375V37.0625C21.25 37.2448 21.3224 37.4197 21.4514 37.5486C21.5803 37.6776 21.7552 37.75 21.9375 37.75C22.1198 37.75 22.2947 37.6776 22.4236 37.5486C22.5526 37.4197 22.625 37.2448 22.625 37.0625V34.8364L24.847 37.5032C24.9375 37.6117 25.0592 37.6897 25.1956 37.7266C25.332 37.7634 25.4765 37.7574 25.6093 37.7092C25.7422 37.661 25.8569 37.5731 25.938 37.4574C26.0191 37.3417 26.0626 37.2038 26.0625 37.0625V32.9375C26.0625 32.7552 25.9901 32.5803 25.8611 32.4514C25.7322 32.3224 25.5573 32.25 25.375 32.25ZM32.5587 32.3229C32.478 32.2823 32.3901 32.258 32.3 32.2514C32.2099 32.2449 32.1194 32.2561 32.0336 32.2845C31.9479 32.3129 31.8686 32.358 31.8002 32.417C31.7319 32.4761 31.6759 32.5481 31.6354 32.6288L30.1799 35.5252L28.7437 32.6316C28.6626 32.4682 28.5199 32.3437 28.347 32.2856C28.1741 32.2274 27.9852 32.2404 27.8218 32.3215C27.6584 32.4026 27.534 32.5454 27.4758 32.7183C27.4177 32.8911 27.4306 33.0801 27.5117 33.2434L29.5639 37.3684C29.6208 37.4829 29.7084 37.5792 29.817 37.6466C29.9256 37.714 30.0508 37.7498 30.1786 37.75C30.3059 37.7499 30.4308 37.7145 30.5392 37.6476C30.6476 37.5807 30.7353 37.485 30.7925 37.3712L32.866 33.2462C32.9065 33.1654 32.9307 33.0774 32.9372 32.9873C32.9437 32.8971 32.9323 32.8066 32.9038 32.7208C32.8753 32.635 32.8301 32.5558 32.7709 32.4875C32.7116 32.4192 32.6395 32.3633 32.5587 32.3229ZM36.375 32.25C35.828 32.25 35.3034 32.4673 34.9166 32.8541C34.5298 33.2409 34.3125 33.7655 34.3125 34.3125V35.6875C34.3125 36.2345 34.5298 36.7591 34.9166 37.1459C35.3034 37.5327 35.828 37.75 36.375 37.75C36.922 37.75 37.4466 37.5327 37.8334 37.1459C38.2202 36.7591 38.4375 36.2345 38.4375 35.6875V34.3125C38.4375 33.7655 38.2202 33.2409 37.8334 32.8541C37.4466 32.4673 36.922 32.25 36.375 32.25ZM37.0625 35.6875C37.0625 35.8698 36.9901 36.0447 36.8611 36.1736C36.7322 36.3026 36.5573 36.375 36.375 36.375C36.1927 36.375 36.0178 36.3026 35.8889 36.1736C35.7599 36.0447 35.6875 35.8698 35.6875 35.6875V34.3125C35.6875 34.1302 35.7599 33.9553 35.8889 33.8264C36.0178 33.6974 36.1927 33.625 36.375 33.625C36.5573 33.625 36.7322 33.6974 36.8611 33.8264C36.9901 33.9553 37.0625 34.1302 37.0625 34.3125V35.6875ZM44.625 33.625H46C46.1823 33.625 46.3572 33.5526 46.4861 33.4236C46.6151 33.2947 46.6875 33.1198 46.6875 32.9375C46.6875 32.7552 46.6151 32.5803 46.4861 32.4514C46.3572 32.3224 46.1823 32.25 46 32.25H44.625C44.078 32.25 43.5534 32.4673 43.1666 32.8541C42.7798 33.2409 42.5625 33.7655 42.5625 34.3125V35.6875C42.5625 36.2345 42.7798 36.7591 43.1666 37.1459C43.5534 37.5327 44.078 37.75 44.625 37.75H46C46.1823 37.75 46.3572 37.6776 46.4861 37.5486C46.6151 37.4197 46.6875 37.2448 46.6875 37.0625C46.6875 36.8802 46.6151 36.7053 46.4861 36.5764C46.3572 36.4474 46.1823 36.375 46 36.375H44.625C44.4427 36.375 44.2678 36.3026 44.1389 36.1736C44.0099 36.0447 43.9375 35.8698 43.9375 35.6875V34.3125C43.9375 34.1302 44.0099 33.9553 44.1389 33.8264C44.2678 33.6974 44.4427 33.625 44.625 33.625ZM43.25 19.1875H26.75C26.203 19.1875 25.6784 19.4048 25.2916 19.7916C24.9048 20.1784 24.6875 20.703 24.6875 21.25V25.375C24.6875 25.922 24.9048 26.4466 25.2916 26.8334C25.6784 27.2202 26.203 27.4375 26.75 27.4375H43.25C43.797 27.4375 44.3216 27.2202 44.7084 26.8334C45.0952 26.4466 45.3125 25.922 45.3125 25.375V21.25C45.3125 20.703 45.0952 20.1784 44.7084 19.7916C44.3216 19.4048 43.797 19.1875 43.25 19.1875ZM43.9375 25.375C43.9375 25.5573 43.8651 25.7322 43.7361 25.8611C43.6072 25.9901 43.4323 26.0625 43.25 26.0625H26.75C26.5677 26.0625 26.3928 25.9901 26.2639 25.8611C26.1349 25.7322 26.0625 25.5573 26.0625 25.375V21.25C26.0625 21.0677 26.1349 20.8928 26.2639 20.7639C26.3928 20.6349 26.5677 20.5625 26.75 20.5625H43.25C43.4323 20.5625 43.6072 20.6349 43.7361 20.7639C43.8651 20.8928 43.9375 21.0677 43.9375 21.25V25.375ZM28.125 43.9375H41.875C42.0573 43.9375 42.2322 43.8651 42.3611 43.7361C42.4901 43.6072 42.5625 43.4323 42.5625 43.25C42.5625 43.0677 42.4901 42.8928 42.3611 42.7639C42.2322 42.6349 42.0573 42.5625 41.875 42.5625H28.125C27.9427 42.5625 27.7678 42.6349 27.6389 42.7639C27.5099 42.8928 27.4375 43.0677 27.4375 43.25C27.4375 43.4323 27.5099 43.6072 27.6389 43.7361C27.7678 43.8651 27.9427 43.9375 28.125 43.9375ZM40.5 46H29.5C29.3177 46 29.1428 46.0724 29.0139 46.2014C28.8849 46.3303 28.8125 46.5052 28.8125 46.6875C28.8125 46.8698 28.8849 47.0447 29.0139 47.1736C29.1428 47.3026 29.3177 47.375 29.5 47.375H40.5C40.6823 47.375 40.8572 47.3026 40.9861 47.1736C41.1151 47.0447 41.1875 46.8698 41.1875 46.6875C41.1875 46.5052 41.1151 46.3303 40.9861 46.2014C40.8572 46.0724 40.6823 46 40.5 46ZM39.125 49.4375H30.875C30.6927 49.4375 30.5178 49.5099 30.3889 49.6389C30.2599 49.7678 30.1875 49.9427 30.1875 50.125C30.1875 50.3073 30.2599 50.4822 30.3889 50.6111C30.5178 50.7401 30.6927 50.8125 30.875 50.8125H39.125C39.3073 50.8125 39.4822 50.7401 39.6111 50.6111C39.7401 50.4822 39.8125 50.3073 39.8125 50.125C39.8125 49.9427 39.7401 49.7678 39.6111 49.6389C39.4822 49.5099 39.3073 49.4375 39.125 49.4375Z" fill="white"/>
<defs>
<linearGradient id="paint0_linear_2318_343" x1="70" y1="35" x2="0" y2="35" gradientUnits="userSpaceOnUse">
<stop stop-color="#A765D4"/>
<stop offset="1" stop-color="#134EAC"/>
</linearGradient>
</defs>
</svg>
