<svg width="70" height="70" viewBox="0 0 70 70" fill="none" xmlns="http://www.w3.org/2000/svg">
<rect width="70" height="70" rx="35" fill="url(#paint0_linear_2318_358)"/>
<path d="M32.1487 22.1406C26.7219 22.1406 22.3215 26.541 22.3215 31.9679C22.3215 37.3948 26.7124 41.8047 32.1487 41.8047C37.5851 41.8047 41.976 37.4043 41.976 31.9679C41.9665 26.541 37.5756 22.1501 32.1487 22.1406ZM32.1487 39.9038C27.7673 39.9038 24.2223 36.3493 24.2223 31.9774C24.2223 27.6055 27.7768 24.051 32.1487 24.051C36.5206 24.051 40.0752 27.6055 40.0752 31.9774C40.0752 36.3493 36.5206 39.8943 32.1487 39.9038Z" fill="white"/>
<path d="M54.2839 25.6842H52.2975V23.3652C52.2975 21.3123 50.6248 19.6016 48.5814 19.6016H15.7161C13.6727 19.6016 12 21.3123 12 23.3652V40.5677C12 42.6206 13.6632 44.2933 15.7161 44.3123H17.7025V46.6313C17.7025 48.6842 19.3752 50.395 21.4186 50.395H54.2839C56.3273 50.395 58 48.6842 58 46.6313V29.4288C58 27.3664 56.3368 25.6937 54.2839 25.6842ZM15.7161 42.4115C14.7087 42.402 13.9008 41.5751 13.9008 40.5677V23.3652C13.9008 22.3578 14.7182 21.5024 15.7161 21.5024H48.5814C49.5793 21.5024 50.3967 22.3578 50.3967 23.3652V40.5677C50.3967 41.5751 49.5888 42.3925 48.5814 42.4115H15.7161ZM56.0992 46.6313C56.0992 47.6388 55.2818 48.4941 54.2839 48.4941H21.4186C20.4207 48.4941 19.6033 47.6388 19.6033 46.6313V44.3123H48.5814C50.6343 44.3028 52.2975 42.6301 52.2975 40.5677V27.585H54.2839C55.2913 27.5945 56.0992 28.4214 56.0992 29.4288V46.6313Z" fill="white"/>
<path d="M35.2091 28.927H34.2872C34.2111 28.6989 34.1161 28.4708 34.0021 28.2617H35.2091C35.7318 28.2522 36.1595 27.8245 36.1595 27.3018C36.1595 26.7791 35.7318 26.3514 35.2091 26.3514H29.0884C28.5657 26.3514 28.138 26.7791 28.138 27.3018C28.138 27.8245 28.5657 28.2522 29.0884 28.2522H30.8372C31.3694 28.2522 31.8826 28.4993 32.2153 28.9175H29.0884C28.5657 28.9175 28.138 29.3452 28.138 29.8679C28.138 30.3906 28.5657 30.8183 29.0884 30.8183H32.2248C32.1678 30.9134 32.1012 30.9989 32.0252 31.0749C31.7116 31.3886 31.2839 31.5692 30.8372 31.5787H29.0884C28.5657 31.5787 28.138 32.0063 28.138 32.5291C28.138 32.7952 28.2426 33.0423 28.4326 33.2229L32.814 37.3572C33.1942 37.7183 33.8025 37.6898 34.1541 37.3097C34.5058 36.9295 34.4868 36.3307 34.1161 35.9791L31.4264 33.4415C32.1583 33.3179 32.8426 32.9758 33.3653 32.4435C33.3653 32.4435 33.3653 32.4245 33.3748 32.4245C33.831 31.9873 34.1446 31.4361 34.2872 30.8278H35.2091C35.7318 30.8278 36.1595 30.4001 36.1595 29.8774C36.1595 29.3547 35.7318 28.927 35.2091 28.927ZM17.9496 22.5117C16.3244 22.5117 15.0033 23.8328 15.0033 25.458C15.0033 27.0832 16.3244 28.4043 17.9496 28.4043C19.5748 28.4043 20.8959 27.0832 20.8959 25.458C20.8959 23.8328 19.5748 22.5117 17.9496 22.5117ZM17.9496 26.494C17.3698 26.494 16.9041 26.0282 16.9041 25.4485C16.9041 24.8687 17.3698 24.403 17.9496 24.403C18.5293 24.403 18.995 24.8687 18.995 25.4485C18.995 26.0282 18.5293 26.494 17.9496 26.494ZM46.3384 35.4563C44.7132 35.4563 43.3921 36.7774 43.3921 38.4026C43.3921 40.0278 44.7132 41.3489 46.3384 41.3489C47.9636 41.3489 49.2847 40.0278 49.2847 38.4026C49.2847 36.7774 47.9636 35.4659 46.3384 35.4563ZM46.3384 39.4481C45.7587 39.4481 45.293 38.9824 45.293 38.4026C45.293 37.8229 45.7587 37.3572 46.3384 37.3572C46.9182 37.3572 47.3839 37.8229 47.3839 38.4026C47.3839 38.9729 46.9182 39.4386 46.3384 39.4481Z" fill="white"/>
<defs>
<linearGradient id="paint0_linear_2318_358" x1="70" y1="35" x2="0" y2="35" gradientUnits="userSpaceOnUse">
<stop stop-color="#FF422D"/>
<stop offset="1" stop-color="#FF8E00"/>
</linearGradient>
</defs>
</svg>
